# xmcd
#
# Track frame offsets:
#	150
#	15541
#	31958
#	48980
#	60604
#	75851
#	93831
#	107392
#	128803
#	149289
#
# Disc length: 2230 seconds
#
# Revision: 1
# Processed by: cddbd v1.5.2PL0 Copyright (c) Steve Scherf et al.
# Submitted via: audiograbber 1.83.01
#
DISCID=6d08b40a
DTITLE=Robert Wilson Blues Band - Space Between The Notes
DYEAR=1900
DGENRE=Blues
TTITLE0=Greasy Gravy
TTITLE1=Somebody
TTITLE2=Gamblin' For My Bread
TTITLE3=I Can't Stop It
TTITLE4=Phone Booth
TTITLE5=Love Doctor
TTITLE6=When The Lights Go Out
TTITLE7=Unchain My Heart
TTITLE8=Come On Home
TTITLE9=Rome Wasn't Built In A Day
EXTD=
EXTT0=
EXTT1=
EXTT2=
EXTT3=
EXTT4=
EXTT5=
EXTT6=
EXTT7=
EXTT8=
EXTT9=
PLAYORDER=
